<svg xmlns="http://www.w3.org/2000/svg" xmlns:xlink="http://www.w3.org/1999/xlink" version="1.1" x="0px" y="0px" viewBox="0 0 100 125" style="enable-background:new 0 0 100 100;" xml:space="preserve"><style type="text/css">
	.st0{fill-rule:evenodd;clip-rule:evenodd;}
</style><path class="st0" d="M50,5c24.852,0,45,20.148,45,45S74.853,95,50,95C25.147,95,5,74.853,5,50C5,25.147,25.148,5,50,5L50,5z   M50,58.885c-1.912,0-3.643,0.776-4.895,2.028l0.007,0.007c-1.258,1.26-2.035,2.99-2.035,4.888c0,6.059,7.401,9.289,11.811,4.888  l0.007,0.007C59.247,66.351,56.146,58.885,50,58.885L50,58.885z M50,65.822v-0.003V65.822L50,65.822L50,65.822z M49.999,65.821  C49.998,65.824,49.997,65.825,49.999,65.821L50,65.808h-0.014l0.001,0.001l0.002-0.001c-0.004-0.002-0.007-0.004-0.003,0  c-0.003,0.003-0.002,0.002,0.001,0.001L49.999,65.821L49.999,65.821z M50,27.269c-1.912,0-3.643,0.776-4.895,2.028l0.007,0.007  c-1.258,1.26-2.035,2.99-2.035,4.888c0,6.059,7.401,9.289,11.811,4.888l0.007,0.007C59.247,34.735,56.146,27.269,50,27.269  L50,27.269z M50,34.206v-0.003V34.206L50,34.206L50,34.206z M49.999,34.205C49.998,34.207,49.997,34.209,49.999,34.205L50,34.192  h-0.014l0.001,0.001l0.002-0.001c-0.004-0.002-0.007-0.004-0.003,0c-0.003,0.003-0.002,0.002,0.001,0.001L49.999,34.205  L49.999,34.205z M66.925,46.539h-33.85c-4.557,0-4.557,6.923,0,6.923h33.85C71.482,53.461,71.482,46.539,66.925,46.539  L66.925,46.539z M76.925,23.076c-14.87-14.87-38.98-14.87-53.849,0c-14.869,14.87-14.87,38.98,0,53.849  c14.87,14.87,38.98,14.87,53.849,0C91.794,62.055,91.795,37.945,76.925,23.076z"/><text x="0" y="115" fill="#000000" font-size="5px" font-weight="bold" font-family="'Helvetica Neue', Helvetica, Arial-Unicode, Arial, Sans-serif">Created by Siti Zullyanti Afidah</text><text x="0" y="120" fill="#000000" font-size="5px" font-weight="bold" font-family="'Helvetica Neue', Helvetica, Arial-Unicode, Arial, Sans-serif">from the Noun Project</text></svg>